<?xml version="1.0" encoding="utf-8"?>
<!-- Generator: Adobe Illustrator 23.0.1, SVG Export Plug-In . SVG Version: 6.00 Build 0)  -->
<svg version="1.1" id="Calque_1" xmlns="http://www.w3.org/2000/svg" xmlns:xlink="http://www.w3.org/1999/xlink" x="0px" y="0px"
	 viewBox="0 0 800 579" style="enable-background:new 0 0 800 579;" xml:space="preserve">
<style type="text/css">
	.st0{fill:#6699FF;}
	.st1{opacity:0.8;}
	.st2{fill:#FFFFFF;}
	.st3{fill:#8CABEF;}
	.st4{fill:#474EBB;}
	.st5{fill:#F7F7F7;}
	.st6{fill:#5D66D3;}
	.st7{fill:#B8E5FF;}
	.st8{fill:#00A3FF;}
	.st9{fill:#3B3387;}
	.st10{fill:#353A85;}
	.st11{opacity:0.07;fill:#2E4661;enable-background:new    ;}
	.st12{fill:#292949;}
	.st13{opacity:0.03;fill:#272525;enable-background:new    ;}
	.st14{opacity:0.2;fill:#BBBCBF;enable-background:new    ;}
	.st15{opacity:0.5;fill:#D1E7F5;enable-background:new    ;}
	.st16{opacity:0.22;}
	.st17{opacity:0.31;fill:#FFFFFF;enable-background:new    ;}
	.st18{fill:#DDDAE8;}
</style>
<g>
	<g id="Slide_1">
		<g id="gestion-2" transform="translate(101.002 127.296)">
			<g id="background" transform="translate(4.227)">
				<path id="Tracé_8528" class="st0" d="M676.39,122.35C625.6,216.14,432.68,278.3,398.06,320.01
					c-84.92,102.36-127.4,132.66-244.35,132.15c-201.57-0.91-312.6-193.92-179.48-291.29C272.55-57.4,326.34-127,490.97-127
					S732.94,17.94,676.39,122.35z"/>
				<g id="Groupe_446" transform="translate(115.386 15.832)" class="st1">
					<path id="Tracé_8529" class="st2" d="M391.51-49.71c-3.58,0-6.48-2.9-6.48-6.48c0-3.58,2.9-6.48,6.48-6.48
						c3.58,0,6.48,2.9,6.48,6.48C397.99-52.61,395.09-49.71,391.51-49.71L391.51-49.71z M391.51-61.05c-2.68,0-4.86,2.17-4.87,4.86
						c0,2.68,2.17,4.86,4.86,4.87c2.68,0,4.86-2.17,4.87-4.86c0,0,0,0,0-0.01C396.36-58.87,394.19-61.04,391.51-61.05L391.51-61.05z
						"/>
				</g>
				<g id="Groupe_447" transform="translate(47.103 110.071)" class="st1">
					<path id="Tracé_8530" class="st2" d="M114.07,333.22c-3.58,0-6.49-2.9-6.49-6.49s2.9-6.49,6.49-6.49
						c3.58,0,6.49,2.9,6.49,6.49c0,0,0,0,0,0C120.55,330.32,117.65,333.22,114.07,333.22z M114.07,321.87
						c-2.69,0-4.87,2.18-4.87,4.87c0,2.69,2.18,4.87,4.87,4.87c2.69,0,4.87-2.18,4.87-4.87c0,0,0-0.01,0-0.01
						C118.93,324.04,116.75,321.87,114.07,321.87z"/>
				</g>
				<g id="Groupe_448" transform="translate(129.891 56.532)" class="st1">
					<path id="Tracé_8531" class="st2" d="M450.46,115.67c-3.58,0-6.49-2.9-6.49-6.48c0-3.58,2.9-6.49,6.48-6.49
						c3.58,0,6.49,2.9,6.49,6.48c0,0,0,0.01,0,0.01C456.94,112.77,454.04,115.67,450.46,115.67z M450.46,104.33
						c-2.69-0.01-4.87,2.17-4.88,4.86c-0.01,2.69,2.17,4.87,4.86,4.88c2.69,0.01,4.87-2.17,4.88-4.86c0,0,0-0.01,0-0.01
						C455.32,106.51,453.14,104.34,450.46,104.33L450.46,104.33z"/>
				</g>
				<g id="Groupe_449" transform="translate(90.077 9.256)" class="st1">
					
						<rect id="Rectangle_1516" x="287.07" y="-90.76" transform="matrix(0.7151 -0.699 0.699 0.7151 140.5173 177.5146)" class="st2" width="1.9" height="14.28"/>
					
						<rect id="Rectangle_1517" x="280.88" y="-84.57" transform="matrix(0.7244 -0.6894 0.6894 0.7244 137.0239 175.5097)" class="st2" width="14.28" height="1.9"/>
				</g>
				<g id="Groupe_450" transform="translate(144.307 36.118)" class="st1">
					
						<rect id="Rectangle_1518" x="507.42" y="18.38" transform="matrix(0.7151 -0.699 0.699 0.7151 127.0008 362.6436)" class="st2" width="1.9" height="14.28"/>
					
						<rect id="Rectangle_1519" x="501.23" y="24.58" transform="matrix(0.7244 -0.6894 0.6894 0.7244 122.5054 357.4948)" class="st2" width="14.28" height="1.9"/>
				</g>
				<g id="Groupe_451" transform="translate(35.717 41.529)" class="st1">
					
						<rect id="Rectangle_1520" x="66.2" y="40.37" transform="matrix(0.7151 -0.699 0.699 0.7151 -14.0802 60.4754)" class="st2" width="1.9" height="14.28"/>
					
						<rect id="Rectangle_1521" x="60.01" y="46.57" transform="matrix(0.7244 -0.6894 0.6894 0.7244 -14.2526 59.3837)" class="st2" width="14.28" height="1.9"/>
				</g>
			</g>
			<g id="object" transform="translate(-0.002 11.319)">
				<path id="Tracé_8532" class="st3" d="M408.54,408.72H129.09V6.63h310.16v375.91C439.24,396.99,425.5,408.72,408.54,408.72z"/>
				<rect id="Rectangle_1522" x="129.01" y="6.63" class="st4" width="309.64" height="18.67"/>
				<path id="Tracé_8533" class="st5" d="M361.03,227.77c4.18,0,4.18-4.72,0-4.72H205.59c-4.18,0-4.18,4.72,0,4.72H361.03z"/>
				<path id="Tracé_8534" class="st5" d="M277.09,38.24c-23.91-0.02-46.64,10.37-62.28,28.46l62.28,53.98l62.3-53.98
					C323.75,48.6,301,38.21,277.09,38.24z"/>
				<path id="Tracé_8535" class="st6" d="M364.62,108.6l-81.6,11.75v82.42c45.51,0.02,82.42-36.85,82.44-82.36
					C365.47,116.46,365.19,112.52,364.62,108.6L364.62,108.6z"/>
				<path id="Tracé_8536" class="st7" d="M214.87,66.97c-29.34,34.81-24.91,86.82,9.9,116.16c3,2.53,6.18,4.85,9.52,6.92
					l43.62-69.96L214.87,66.97z"/>
				<path id="Tracé_8537" class="st8" d="M277.79,202.66c-15.8,0.02-31.28-4.53-44.56-13.1l44.56-69.37V202.66z"/>
				<path id="Tracé_8538" class="st9" d="M368.82,104.06c-2.23-15.65-8.93-30.32-19.3-42.25l-62.3,53.98L368.82,104.06z"/>
				<rect id="Rectangle_1523" x="165.55" y="317.71" class="st10" width="30.29" height="72.95"/>
				<rect id="Rectangle_1524" x="165.55" y="289.46" class="st4" width="30.29" height="34.28"/>
				<rect id="Rectangle_1525" x="364.93" y="321" class="st10" width="30.29" height="72.95"/>
				<rect id="Rectangle_1526" x="364.93" y="259.43" class="st4" width="30.48" height="67.6"/>
				<rect id="Rectangle_1527" x="298.47" y="315.24" class="st10" width="30.29" height="77.06"/>
				<rect id="Rectangle_1528" x="298.47" y="308.39" class="st4" width="30.29" height="51.15"/>
				<rect id="Rectangle_1529" x="232.01" y="288.4" class="st10" width="30.29" height="103.49"/>
				<rect id="Rectangle_1530" x="232.01" y="248.33" class="st4" width="30.29" height="82.78"/>
				<path id="Tracé_8539" class="st2" d="M140.84,21.24c-2.2,0-3.99-1.78-3.99-3.98c0-2.2,1.78-3.99,3.98-3.99
					c2.2,0,3.99,1.78,3.99,3.98c0,0,0,0,0,0.01C144.82,19.46,143.04,21.24,140.84,21.24z M140.84,13.97
					c0.01,0.76,0.63,1.37,1.39,1.36c0.76-0.01,1.37-0.63,1.36-1.39c-0.01-0.76-0.63-1.37-1.39-1.36c-0.75,0.01-1.35,0.61-1.36,1.36
					V13.97z"/>
				<path id="Tracé_8540" class="st2" d="M153.13,21.24c-2.2,0-3.99-1.78-3.99-3.98s1.78-3.99,3.98-3.99c2.2,0,3.99,1.78,3.99,3.98
					c0,0,0,0,0,0.01C157.11,19.46,155.33,21.24,153.13,21.24z M153.13,13.97c0.01,0.76,0.63,1.37,1.39,1.36
					c0.76-0.01,1.37-0.63,1.36-1.39c-0.01-0.76-0.63-1.37-1.39-1.36c-0.75,0.01-1.35,0.61-1.36,1.36V13.97z"/>
				<path id="Tracé_8541" class="st2" d="M165.4,21.24c-2.2,0-3.98-1.78-3.98-3.98c0-2.2,1.78-3.98,3.98-3.98
					c2.2,0,3.98,1.78,3.98,3.98v0C169.39,19.46,167.6,21.24,165.4,21.24z M165.4,13.97c0.01,0.76,0.63,1.37,1.39,1.36
					c0.76-0.01,1.37-0.63,1.36-1.39c-0.01-0.76-0.63-1.37-1.39-1.36c-0.75,0.01-1.35,0.61-1.36,1.36V13.97z"/>
				<path id="Tracé_8542" class="st11" d="M137.42,420.45H-60.26V115.1h216.05v286.97c0.01,10.14-8.21,18.37-18.35,18.37
					C137.43,420.45,137.42,420.45,137.42,420.45L137.42,420.45z"/>
				<path id="Tracé_8543" class="st10" d="M121.24,411.89H-84.8V92h232.79v293.16C147.98,399.93,136.01,411.89,121.24,411.89z"/>
				<rect id="Rectangle_1531" x="-60.1" y="117.54" class="st2" width="188.46" height="119.18"/>
				<path id="Tracé_8544" class="st7" d="M59.28,158.87c0.98,1.87,2.67,3.27,4.69,3.88c4.92,1.91,10.51,0.51,13.94-3.5
					c4.6-6.68,3.31-16.23,8.26-23.18c2.13-2.96,5.2-5.12,8.7-6.12c3.65-1.07,7.58-0.7,10.97,1.04c4.77,3.11,7.48,8.56,7.09,14.24
					c-0.09,10.53-1.17,21.02-3.23,31.35c-0.59,5.13-2.64,9.98-5.89,13.99c-5.71,5.08-12.94,8.14-20.57,8.7
					c-19.6,2.19-39.39,1.96-58.93-0.67l-47.3-4.44c-4.45-0.42-17.53,0.25-20.19-2.83s-0.56-13.2,0.96-16.34
					c4.53-7.28,12.8-11.35,21.33-10.51c19.59,1.01,11.85-19.46,18.12-29.18c3.62-5.67,10.47-8.38,16.99-6.72
					c6.03,2.03,8.54,8.1,11.51,13.12c1.36,2.9,3.94,5.04,7.03,5.87c5.59,0.96,10.28-4.73,15.98-4.52c3.27,0.25,6.18,2.17,7.71,5.06
					C58.43,151.78,57.74,155.76,59.28,158.87z"/>
				<path id="Tracé_8545" class="st8" d="M116.04,230.25c0,0,0.04-8.58,0.04-9.04c0.04-12.8,0.06-25.6,0.06-38.4
					c0-12.23,1.01-24.46,0.82-36.66c-0.09-5.64-2.53-8.61-8.47-7.09c-5.91,1.51-11.15,4.94-14.89,9.76
					c-2.49,3.25-4.56,7.31-8.45,8.61c-6.94,2.33-12.61-5.47-18.84-9.32c-6.97-4.12-15.77-3.47-22.06,1.65
					c-7.28,6.16-8.96,16.79-15.11,24.07c-7.14,8.09-18.69,10.63-28.57,6.29c-3.92-1.81-7.28-4.64-11.11-6.58
					c-14.47-6.17-31.19,0.56-37.36,15.03c-0.72,1.68-1.27,3.43-1.65,5.22v34.94C-49.55,228.72,116.35,230.56,116.04,230.25z"/>
				<rect id="Rectangle_1532" x="-57.02" y="254.89" class="st3" width="14.17" height="14.17"/>
				<rect id="Rectangle_1533" x="-57.02" y="275.83" class="st6" width="14.17" height="14.17"/>
				<rect id="Rectangle_1534" x="-31.16" y="259.2" class="st5" width="41.27" height="4.31"/>
				<rect id="Rectangle_1535" x="-31.77" y="281.98" class="st5" width="41.27" height="4.31"/>
				<rect id="Rectangle_1536" x="-55.17" y="314.14" class="st5" width="179.84" height="4.66"/>
				<rect id="Rectangle_1537" x="-55.17" y="327.67" class="st5" width="80.06" height="63.82"/>
				<rect id="Rectangle_1538" x="37.21" y="328.3" class="st5" width="87.46" height="27.79"/>
				<rect id="Rectangle_1539" x="36.28" y="363.39" class="st5" width="87.46" height="27.79"/>
				<path id="Tracé_8546" class="st12" d="M47.18-40.2H-99.96c-0.59,0.03-1.04,0.53-1.01,1.12v77.97
					c-0.76,18.42,13.52,33.98,31.93,34.8h61.01l24.95,35.02c0.37,0.54,1.11,0.67,1.65,0.29c0.32-0.22,0.51-0.58,0.51-0.97
					l0.51-34.32h27.6c0.59-0.03,1.04-0.53,1.01-1.12V-39.09C48.22-39.68,47.77-40.18,47.18-40.2z"/>
				<rect id="Rectangle_1540" x="-81.72" y="-21.57" class="st5" width="91.65" height="3.82"/>
				<rect id="Rectangle_1541" x="-81.72" y="7.55" class="st5" width="109.31" height="3.82"/>
				<rect id="Rectangle_1542" x="-81.72" y="36.67" class="st5" width="109.31" height="3.82"/>
				<path id="Tracé_8547" class="st8" d="M142.91-3.65H33.76v-77.36h102.23l21.89,23.11v38.27
					C158.15-11.08,151.45-3.93,142.91-3.65z"/>
				<path id="Tracé_8548" class="st4" d="M157.93-57.71l-21.97,0.55v-23.85L157.93-57.71z"/>
				<rect id="Rectangle_1543" x="63.7" y="-60.93" class="st5" width="69.62" height="3.31"/>
				<rect id="Rectangle_1544" x="52.67" y="-44.91" class="st5" width="80.65" height="3.31"/>
				<rect id="Rectangle_1545" x="52.67" y="-28.89" class="st5" width="80.65" height="3.31"/>
				<path id="Tracé_8549" class="st5" d="M362.72,151.23c-0.42,0-0.78-0.31-0.83-0.73c-0.16-1.12-0.26-2.28-0.31-3.43
					c-0.02-0.46,0.34-0.86,0.81-0.87c0.46-0.02,0.86,0.34,0.87,0.81l0,0c0.05,1.08,0.14,2.19,0.29,3.26
					c0.06,0.46-0.26,0.89-0.72,0.95L362.72,151.23z"/>
				<path id="Tracé_8550" class="st5" d="M362.81,141.17h-0.13c-0.46-0.07-0.77-0.5-0.7-0.96c0.35-2.25,0.89-4.47,1.61-6.63
					c0.15-0.44,0.63-0.68,1.07-0.53c0.44,0.15,0.68,0.63,0.53,1.07c0,0.01,0,0.01-0.01,0.02c-0.7,2.07-1.22,4.19-1.55,6.35
					C363.56,140.89,363.21,141.18,362.81,141.17z M367.01,128.52c-0.13,0-0.27-0.03-0.38-0.09c-0.4-0.21-0.56-0.71-0.36-1.12
					c1.04-2.02,2.21-3.96,3.51-5.82c0.3-0.36,0.83-0.4,1.18-0.11c0.31,0.26,0.39,0.7,0.19,1.06c-1.25,1.81-2.38,3.69-3.4,5.64
					C367.61,128.35,367.32,128.52,367.01,128.52L367.01,128.52z M374.58,117.52c-0.21,0-0.4-0.07-0.56-0.21
					c-0.35-0.3-0.39-0.83-0.09-1.18c1.49-1.7,3.06-3.33,4.7-4.88c0.33-0.33,0.86-0.34,1.19-0.01c0.33,0.33,0.34,0.86,0.01,1.19
					c-0.01,0.01-0.03,0.03-0.04,0.04c-1.63,1.52-3.17,3.13-4.59,4.76c-0.16,0.19-0.39,0.3-0.63,0.3V117.52z M384.3,108.34
					c-0.26,0-0.5-0.12-0.66-0.32c-0.28-0.36-0.22-0.89,0.14-1.17c1.76-1.38,3.61-2.71,5.5-3.94c0.37-0.28,0.89-0.22,1.18,0.15
					c0.28,0.37,0.22,0.89-0.15,1.18c-0.04,0.03-0.07,0.05-0.11,0.07c-1.85,1.21-3.66,2.53-5.38,3.86c-0.14,0.11-0.32,0.17-0.51,0.18
					L384.3,108.34z M395.49,101c-0.31,0-0.59-0.17-0.74-0.44c-0.21-0.4-0.06-0.9,0.33-1.12c1.95-1.07,3.97-2.11,6-3.07
					c0.42-0.2,0.92-0.02,1.12,0.4c0.2,0.42,0.02,0.92-0.4,1.12c-2.03,0.95-3.99,1.96-5.91,3.04c-0.13,0.06-0.27,0.09-0.42,0.09
					L395.49,101z M407.57,95.24c-0.46-0.01-0.84-0.39-0.83-0.85c0-0.33,0.21-0.63,0.51-0.76c2.03-0.84,4.18-1.63,6.31-2.36
					c0.44-0.16,0.92,0.07,1.08,0.51c0.16,0.44-0.07,0.92-0.51,1.08c-2.11,0.72-4.2,1.52-6.22,2.33c-0.1,0.05-0.22,0.07-0.33,0.08
					L407.57,95.24z M420.23,90.88c-0.46-0.01-0.83-0.39-0.83-0.85c0.01-0.37,0.25-0.69,0.6-0.79c2.12-0.61,4.31-1.18,6.51-1.68
					c0.46-0.09,0.9,0.2,0.99,0.66c0.09,0.43-0.18,0.86-0.6,0.98c-2.17,0.51-4.34,1.07-6.44,1.68c-0.07,0.02-0.15,0.03-0.23,0.04
					L420.23,90.88z M527.27,88.52h-0.68c-0.46,0-0.84-0.38-0.84-0.84c0-0.46,0.38-0.84,0.84-0.84h0.67c2.08,0,4.08-0.07,5.95-0.22
					c0.46-0.03,0.87,0.31,0.9,0.78c0.04,0.46-0.31,0.87-0.78,0.9l0,0c-1.91,0.16-3.95,0.23-6.08,0.23L527.27,88.52z M519.91,88.26
					h-0.06c-2-0.13-4.19-0.31-6.72-0.56c-0.46-0.07-0.78-0.5-0.71-0.96c0.06-0.43,0.44-0.74,0.87-0.72
					c2.49,0.25,4.66,0.43,6.64,0.56c0.46,0.02,0.83,0.4,0.81,0.87c-0.02,0.46-0.4,0.83-0.87,0.81l0,0H519.91z M433.24,87.82
					c-0.47,0.02-0.86-0.35-0.87-0.82c-0.02-0.43,0.29-0.8,0.72-0.87c2.16-0.41,4.39-0.78,6.63-1.12c0.46-0.09,0.91,0.21,1,0.67
					c0.09,0.46-0.21,0.91-0.67,1c-0.03,0.01-0.06,0.01-0.08,0.01c-2.24,0.34-4.43,0.71-6.58,1.12c-0.05,0.01-0.1,0.01-0.16,0H433.24
					z M539.92,87.43c-0.46,0.07-0.89-0.25-0.96-0.71c-0.07-0.46,0.25-0.89,0.71-0.96c0.03,0,0.06-0.01,0.1-0.01
					c2.15-0.41,4.28-0.97,6.35-1.68c0.44-0.14,0.91,0.11,1.05,0.56c0.13,0.42-0.09,0.87-0.49,1.03c-2.15,0.74-4.35,1.33-6.58,1.75
					C540.03,87.42,539.97,87.43,539.92,87.43L539.92,87.43z M506.58,87h-0.09l-2-0.22c-1.55-0.17-3.1-0.33-4.66-0.48
					c-0.47-0.02-0.83-0.41-0.81-0.88c0.02-0.47,0.41-0.83,0.88-0.81c0.03,0,0.06,0,0.09,0.01c1.56,0.15,3.12,0.31,4.67,0.51l2,0.22
					c0.46,0.03,0.82,0.42,0.79,0.89c-0.02,0.46-0.42,0.82-0.89,0.8l0,0L506.58,87z M446.48,85.88c-0.46,0.03-0.86-0.33-0.89-0.79
					c-0.03-0.46,0.33-0.86,0.79-0.89c2.18-0.24,4.44-0.44,6.72-0.6c0.46-0.03,0.87,0.32,0.9,0.78c0.03,0.46-0.32,0.87-0.78,0.9l0,0
					c-2.24,0.16-4.48,0.36-6.63,0.6L446.48,85.88z M493.26,85.73h-0.07c-2.24-0.18-4.48-0.33-6.66-0.47
					c-0.46-0.03-0.82-0.43-0.79-0.89c0.03-0.46,0.43-0.82,0.89-0.79c2.18,0.13,4.43,0.29,6.72,0.47c0.46,0.02,0.83,0.41,0.81,0.87
					c-0.02,0.46-0.41,0.83-0.87,0.81l0,0H493.26z M479.9,84.92h-0.04c-2.24-0.09-4.48-0.15-6.67-0.18
					c-0.46-0.01-0.84-0.39-0.83-0.86c0-0.46,0.37-0.82,0.83-0.82c0.01,0,0.01,0,0.02,0c2.19,0.04,4.48,0.09,6.72,0.18
					c0.46,0.01,0.84,0.39,0.83,0.85C480.75,84.56,480.37,84.93,479.9,84.92L479.9,84.92z M459.83,84.92
					c-0.46,0.01-0.85-0.36-0.86-0.82c-0.01-0.46,0.36-0.85,0.82-0.86c2.19-0.09,4.48-0.15,6.72-0.17c0.46,0,0.83,0.37,0.85,0.83
					c0.01,0.46-0.37,0.84-0.83,0.85c-2.24,0-4.48,0.09-6.67,0.17H459.83z M552.48,83.06c-0.46,0-0.84-0.38-0.84-0.85
					c0-0.31,0.17-0.59,0.44-0.73c1.93-1.04,3.77-2.22,5.51-3.54c0.39-0.25,0.91-0.14,1.16,0.24c0.23,0.35,0.16,0.82-0.15,1.09
					c-1.81,1.38-3.73,2.61-5.73,3.7c-0.12,0.06-0.26,0.08-0.39,0.08L552.48,83.06z M563.12,75.04c-0.22,0-0.44-0.09-0.59-0.25
					c-0.33-0.33-0.33-0.85,0-1.18c0,0,0,0,0,0c1.55-1.56,3.01-3.2,4.37-4.93c0.27-0.38,0.8-0.46,1.17-0.19
					c0.38,0.27,0.46,0.8,0.18,1.17c-0.01,0.02-0.03,0.04-0.04,0.05c-1.39,1.77-2.89,3.46-4.48,5.06c-0.16,0.15-0.38,0.23-0.6,0.22
					L563.12,75.04z M571.44,64.59c-0.47-0.01-0.84-0.39-0.83-0.86c0-0.16,0.05-0.31,0.13-0.44c1.16-1.8,2.28-3.72,3.36-5.72
					c0.23-0.4,0.74-0.55,1.14-0.32c0.39,0.22,0.54,0.71,0.34,1.11c-1.08,2.03-2.24,3.99-3.41,5.84c-0.16,0.23-0.42,0.37-0.7,0.36
					L571.44,64.59z"/>
				<path id="Tracé_8551" class="st5" d="M577.79,52.75c-0.12,0-0.23-0.02-0.33-0.07c-0.43-0.18-0.62-0.68-0.44-1.11
					c0,0,0-0.01,0.01-0.01c0.44-1.01,0.87-2.03,1.29-3.07c0.21-0.42,0.71-0.59,1.13-0.38c0.37,0.18,0.56,0.61,0.43,1.01
					c-0.43,1.06-0.87,2.11-1.32,3.12C578.42,52.55,578.12,52.75,577.79,52.75z"/>
				<path id="Tracé_8552" class="st5" d="M619.28-14.19l-3.51,79.63l-26.33-27.6c0,0,29.91-54.26,30.12-53.37l-1.12-0.96
					c0.89-0.25-31.99,52.26-31.99,52.26l-36.9-9.56l67.87-41.8L619.28-14.19z"/>
				<rect id="Rectangle_1546" x="417.61" y="243.69" class="st11" width="155.17" height="112.18"/>
				<rect id="Rectangle_1547" x="422.92" y="237.18" class="st10" width="156.23" height="112.51"/>
				<rect id="Rectangle_1548" x="422.92" y="237.18" class="st8" width="156.01" height="8.96"/>
				<path id="Tracé_8553" class="st13" d="M578.81,265.47v-0.33h-19.17v-18.83h-0.35v18.83H536.3v-18.83h-0.35v18.83h-22.99v-18.83
					h-0.34v18.83h-22.99v-18.83h-0.36v18.83h-22.99v-18.83h-0.34v18.83h-22.99v-18.83h-0.35v18.83h-19.15v0.35h19.15v21.27h-19.15
					v0.34h19.15v21.27h-19.15v0.35h19.15v21.27h-19.15v0.35h19.15v19.79h0.34v-19.81h22.99v19.79h0.35v-19.79h22.99v19.79h0.34
					v-19.79h22.99v19.79h0.35v-19.79h23.01v19.79h0.34v-19.79h22.99v19.79h0.34v-19.79h19.17v-0.35h-19.16v-21.27h19.17v-0.35
					h-19.17v-21.27h19.17v-0.34h-19.17v-21.27L578.81,265.47z M535.95,265.47v21.27h-22.99v-21.27H535.95z M489.62,287.08h22.99
					v21.27h-22.99V287.08z M489.28,308.34h-22.99v-21.27h22.97L489.28,308.34z M512.96,287.08h22.98v21.27h-22.99L512.96,287.08z
					 M512.61,265.47v21.27h-22.99v-21.27H512.61z M489.27,265.47v21.27h-22.99v-21.27H489.27z M442.95,265.47h22.99v21.27h-22.99
					V265.47z M442.95,287.08h22.99v21.27h-22.99V287.08z M442.95,329.95v-21.27h22.99v21.27H442.95z M466.29,329.95v-21.27h22.97
					v21.27H466.29z M489.62,329.95v-21.27h22.99v21.27H489.62z M512.96,329.95v-21.27h22.98v21.27H512.96z M559.29,329.95H536.3
					v-21.27h22.99V329.95z M559.29,308.34H536.3v-21.27h22.99V308.34z M559.29,286.73H536.3v-21.27h22.99V286.73z"/>
				<path id="Tracé_8554" class="st8" d="M562.33,260.56c-2.63-0.01-4.77,2.12-4.78,4.75c0,1.28,0.51,2.51,1.42,3.41L542.39,283
					l-1.27,1.08c-2.09-1.6-5.08-1.21-6.68,0.88c-1.6,2.09-1.21,5.08,0.88,6.68c0.06,0.05,0.13,0.1,0.2,0.15l-3.63,8.74
					c-0.51,1.24-1.01,2.49-1.55,3.73c-0.35-0.08-0.71-0.13-1.07-0.13c-1.7,0-3.27,0.9-4.12,2.37l-16.02-10.13l-11.81-7.47
					c0.99-2.44-0.19-5.22-2.63-6.21c-2.44-0.99-5.22,0.19-6.21,2.63c-0.23,0.58-0.35,1.19-0.35,1.81c0,0.33,0.04,0.65,0.1,0.97
					l-22.46,9.17l-2.21,0.9c-1.05-2.41-3.85-3.52-6.27-2.47c-2.41,1.05-3.52,3.85-2.47,6.27c0.26,0.59,0.63,1.13,1.1,1.57
					l-3.36,3.78l-15.92,18.08c-2.19-1.48-5.16-0.92-6.65,1.27c-1.48,2.19-0.92,5.16,1.27,6.65c2.19,1.48,5.16,0.92,6.65-1.27
					c1.11-1.64,1.1-3.8-0.03-5.43l13.6-15.44l5.9-6.72c2.43,1,5.22-0.15,6.22-2.59c0.24-0.58,0.36-1.2,0.36-1.83v-0.21l0.32-0.13
					l24.63-10.08c1.41,2.21,4.35,2.86,6.57,1.45c0.35-0.22,0.66-0.48,0.94-0.79l10.76,6.8l17.46,11.04
					c-0.04,0.23-0.05,0.47-0.06,0.71c0,2.63,2.13,4.77,4.76,4.78c2.63,0,4.77-2.13,4.78-4.76c0-1.59-0.79-3.08-2.11-3.97l5.19-12.5
					c0.33,0.07,0.67,0.11,1.01,0.11c2.63,0,4.77-2.13,4.77-4.76c0-0.85-0.22-1.68-0.65-2.41l2.93-2.53l12.54-10.79l2.71-2.33
					c2.42,1.03,5.22-0.1,6.25-2.53c1.03-2.42-0.1-5.22-2.53-6.25c-0.59-0.25-1.23-0.38-1.88-0.38L562.33,260.56z"/>
				<path id="Tracé_8555" class="st5" d="M592.34,187.55l-18.69,29.94l-106.08-66.83l18.69-29.94L592.34,187.55z"/>
				<path id="Tracé_8556" class="st12" d="M628.88,230.93l-0.22,0.34c-5.89,9.45-16.42,13.52-23.51,9.11l-81.42-49.97l21.4-35.98
					l81.6,51.41C633.81,210.24,634.78,221.48,628.88,230.93z"/>
				<path id="Tracé_8557" class="st14" d="M474.99,155.13l5.14,3.75l46.48-12.07l-38.73-24.71L474.99,155.13z"/>
				<path id="Tracé_8558" class="st12" d="M453.39-5.92C403.61-37,338.06-21.84,306.99,27.94
					c-31.08,49.78-15.91,115.33,33.87,146.4c49.78,31.08,115.32,15.92,146.4-33.86C518.33,90.71,503.17,25.16,453.39-5.92z
					 M474.66,132.62c-26.74,42.82-83.13,55.86-125.95,29.13c-42.82-26.74-55.86-83.13-29.13-125.95
					c26.74-42.82,83.13-55.86,125.95-29.13c0.01,0,0.02,0.01,0.02,0.01C488.36,33.43,501.39,89.81,474.66,132.62L474.66,132.62z"/>
				<circle id="Ellipse_5023" class="st15" cx="397.12" cy="84.2" r="91.41"/>
				<g id="Groupe_452" transform="translate(82.843 16.35)" class="st16">
					<path id="Tracé_8559" class="st2" d="M248.4,64.17c-0.98-35.54,27.04-65.14,62.58-66.12c23.55-0.65,45.57,11.62,57.41,31.99
						c4.16,7.09,15.48,1.17,11.31-5.94C358.54-12.86,311.42-25.67,274.45-4.5c-21.49,12.31-35.77,34.18-38.38,58.81
						c-0.35,3.15-0.49,6.32-0.42,9.48c0.13,8.2,12.88,8.61,12.77,0.37L248.4,64.17z"/>
				</g>
				<circle id="Ellipse_5024" class="st17" cx="464.69" cy="66.37" r="8.4"/>
				<path id="Tracé_8560" class="st10" d="M524.81,189.2l20.36-34.24c0.7-1.18,0.4-2.69-0.7-3.5l-0.36-0.27
					c-1.18-0.87-2.85-0.63-3.73,0.56c-0.06,0.08-0.11,0.16-0.16,0.25l-20.05,34.49c-0.74,1.27-0.31,2.9,0.96,3.64
					c0.02,0.01,0.03,0.02,0.05,0.03l0.05,0.03C522.5,190.88,524.08,190.44,524.81,189.2z"/>
				<path id="Tracé_8561" class="st18" d="M486.29,84.86c-0.02,49.96-40.55,90.44-90.51,90.42c-49.96-0.02-90.44-40.55-90.42-90.51
					c0.02-36.46,21.93-69.35,55.57-83.42c41.98-17.55,90.46-1.19,113.23,38.21c7.96,13.76,12.15,29.38,12.15,45.28
					c0.06,1.34,1.2,2.38,2.54,2.32c1.26-0.06,2.26-1.06,2.32-2.32c-0.02-44.92-31.38-83.75-75.3-93.2
					C364.4-19.42,313.71,13.35,302.66,64.82c-11.05,51.47,21.71,102.16,73.19,113.21c51.47,11.05,102.16-21.71,113.21-73.19
					c1.41-6.57,2.12-13.27,2.12-19.99c0-1.35-1.1-2.45-2.45-2.45C487.38,82.41,486.29,83.5,486.29,84.86z"/>
			</g>
		</g>
	</g>
</g>
</svg>
