<?xml version="1.0" encoding="utf-8"?>
<!-- Generator: Adobe Illustrator 23.0.1, SVG Export Plug-In . SVG Version: 6.00 Build 0)  -->
<svg version="1.1" id="Calque_1" xmlns="http://www.w3.org/2000/svg" xmlns:xlink="http://www.w3.org/1999/xlink" x="0px" y="0px"
	 viewBox="0 0 707 689.69" style="enable-background:new 0 0 707 689.69;" xml:space="preserve">
<style type="text/css">
	.st0{fill:#6699FF;}
	.st1{opacity:0.8;}
	.st2{fill:#FFFFFF;}
	.st3{opacity:0.12;fill:#606060;enable-background:new    ;}
	.st4{fill:#21D4FD;}
	.st5{fill:#353A85;}
	.st6{fill:#292949;}
	.st7{fill:#1FC1E6;}
	.st8{fill:#EED5D5;}
	.st9{fill:#F7F7F7;}
	.st10{fill:#2197FF;}
	.st11{fill:#FCE3E3;}
	.st12{enable-background:new    ;}
	.st13{fill:#00A3FF;}
	.st14{fill:none;stroke:#21D4FD;stroke-width:4.0662;stroke-linecap:round;stroke-linejoin:round;}
	.st15{fill:#0071D5;}
	.st16{fill:#DFDFDF;}
</style>
<g>
	<g id="reservation-2_1_" transform="translate(100.537 96)">
		<g id="object_1_" transform="translate(-0.037)">
			<path id="Tracé_8498_1_" class="st0" d="M478.19,298.78c-143.78,90.75-56.24,290.09-282.69,268.63
				c-169.27-16.05-349.29-104.34-82.14-385.55C230.47,58.59,112.8-75.67,282.82-75.67S763.1,118.96,478.19,298.78z"/>
			<g id="Groupe_439_1_" transform="translate(111.111 15.007)" class="st1">
				<path id="Tracé_8499_1_" class="st2" d="M292.65-20.37c-2.56,0-4.64-2.08-4.64-4.64s2.08-4.64,4.64-4.64s4.64,2.08,4.64,4.64
					l0,0C297.29-22.45,295.21-20.37,292.65-20.37z M292.65-28.51c-1.92,0-3.48,1.56-3.48,3.48s1.56,3.48,3.48,3.48
					c1.92,0,3.48-1.56,3.48-3.48c0,0,0,0,0,0C296.13-26.95,294.57-28.51,292.65-28.51C292.65-28.52,292.65-28.52,292.65-28.51
					L292.65-28.51z"/>
			</g>
			<g id="Groupe_440_1_" transform="translate(148.237 52.679)" class="st1">
				<path id="Tracé_8500_1_" class="st2" d="M406.48,95.14c-2.56,0-4.64-2.08-4.64-4.64s2.08-4.64,4.64-4.64
					c2.56,0,4.64,2.08,4.64,4.64c0,0,0,0,0,0C411.12,93.06,409.05,95.14,406.48,95.14z M406.48,87c-1.92,0-3.48,1.56-3.48,3.48
					c0,1.92,1.56,3.48,3.48,3.48c1.92,0,3.48-1.56,3.48-3.48c0,0,0,0,0,0C409.96,88.56,408.41,87,406.48,87
					C406.49,87,406.49,87,406.48,87L406.48,87z"/>
			</g>
			<g id="Groupe_441_1_" transform="translate(20.674 101.915)" class="st1">
				<path id="Tracé_8501_1_" class="st2" d="M16.62,248.67c-3.27,0-5.92-2.65-5.92-5.92c0-3.27,2.65-5.92,5.92-5.92
					s5.92,2.65,5.92,5.92l0,0C22.55,246.02,19.89,248.67,16.62,248.67z M16.62,238.31c-2.45,0-4.44,1.99-4.44,4.44
					c0,2.45,1.99,4.44,4.44,4.44c2.45,0,4.44-1.99,4.44-4.44c0,0,0,0,0,0C21.07,240.3,19.08,238.31,16.62,238.31z"/>
			</g>
			<g id="Groupe_442_1_" transform="translate(79.093 144.319)" class="st1">
				<path id="Tracé_8502_1_" class="st2" d="M195.75,378.69c-3.27,0-5.92-2.65-5.92-5.92s2.65-5.92,5.92-5.92s5.92,2.65,5.92,5.92
					l0,0C201.67,376.04,199.02,378.69,195.75,378.69z M195.75,368.33c-2.45,0-4.44,1.99-4.44,4.44c0,2.45,1.99,4.44,4.44,4.44
					c2.45,0,4.44-1.99,4.44-4.44c0,0,0,0,0,0C200.19,370.32,198.2,368.33,195.75,368.33z"/>
			</g>
			<path id="Tracé_8503_1_" class="st3" d="M570.46,506.22c-70.37-38.67-316.73-15.45-316.73-15.45
				c-17.58,2.37-32.74,4.7-45.71,7.02c0,0-71.3,11.34-105.61,6.51c-25.62-3.61-92.8-8.29-134.06-0.81
				c-7.27,1.25-13.76,5.32-18.06,11.32c-3.59,5.18-5.18,11.39,2.53,16.12c2.14,1.29,4.5,2.15,6.97,2.55
				c31.53,5.4,85.75,4.44,115.36,0.79c47.49-5.8,71.35,0.31,124.93,8.37c52.23,9.1,125.35,14.15,153.07,12.9
				C417.39,552.61,640.84,544.89,570.46,506.22z"/>
			<path id="Tracé_8504_1_" class="st4" d="M298.37,60.5l68.82,31.82l41.44-66.61l17.02,8.88l-31.58,78.57l-29.11,15.42
				l-66.6-28.87l-4.44-35.52L298.37,60.5z"/>
			<path id="Tracé_8505_1_" class="st5" d="M208.33,222.82l-6.68,120.01l15.81,155.82l20.97,0.68l13.71-142.28l30.09-141.8
				L208.33,222.82z"/>
			<path id="Tracé_8506_1_" class="st6" d="M237.69,499.33l-0.3,9.64l-19.23,8.58l-8.99-9.82l9.82-8.99L237.69,499.33z"/>
			<path id="Tracé_8507_1_" class="st6" d="M354.37,496.31l14.07,13.72l-4.25,7.21l-27.24-7.87l0.97-14.2L354.37,496.31z"/>
			<path id="Tracé_8508_1_" class="st5" d="M333.39,256.95l15.31,111.39l9.12,127.92l-23.12,3.92l-35.94-126.75l-37.66-106.13
				l37.19-19.19L333.39,256.95z"/>
			<path id="Tracé_8509_1_" class="st7" d="M298.73,60.18l-46.22-2.91c0,0-28.29,23.56-44.22,86.27
				c-16.22,63.84-10.17,147.26-10.17,147.26s167.24,21.75,153.7-5.84l-26.9-135.26L298.73,60.18z"/>
			<path id="Tracé_8510_1_" class="st4" d="M252.49,57.53l-22.2,6.66l-40.7,62.9l-32.56-47.36l-17.76,8.13l29.6,61.42l26.64,12.58
				l36.26-34.04L252.49,57.53z"/>
			<path id="Tracé_8511_1_" class="st2" d="M262.31,64.54c-11.21,30.74-22.09,61.6-33.64,92.2c-6.85,18.13-6.19,36.76-6.53,55.8
				l-0.98,56.79c-0.14,8-0.27,15.99-0.41,23.99l61.34,5.47c-4.88-22.72-2.63-46.29-7.07-69.1c-4.09-21.04-10.03-44.6-6.98-66.09
				c1.48-10.46,3.13-20.92,4.66-31.38c2.8-19.2,5.68-38.38,8.64-57.55c0.21-1.34,1.48-4.79,0.98-6.1L262.31,64.54z"/>
			<path id="Tracé_8512_1_" class="st8" d="M266.24,70.12l16.26-0.58c0.33-4.32,0.31-8.66-0.05-12.97
				c4.59-1.3,9.93-3.34,11.01-7.99c0.25-1.48,0.25-2.99,0-4.47c-0.67-6.18-1.34-12.35-2.01-18.5c-0.09-2.15-0.61-4.27-1.52-6.23
				c-2.16-3.15-5.53-5.26-9.31-5.82c-9.45-2.45-19.5-0.67-27.53,4.88c-2.13,1.45-3.84,3.43-4.96,5.75
				c-1.18,3.79-1.21,7.85-0.07,11.65l2.1,10.74c0.81,4.12,2.03,8.81,5.86,10.57c2.16,0.52,4.26,1.25,6.28,2.17
				C265.5,61.57,264.74,66.46,266.24,70.12z"/>
			<path id="Tracé_8513_1_" class="st6" d="M217.35,5.73c0.21-4.13,0.91-8.21,2.08-12.17c1.85-6.47,9.76-8.95,16.51-9
				c14.55-0.11,28.94-5.81,42.76,0.13c7.9,3.4,18.7,4.77,25.78,9.31c2.91,1.98,5.29,4.65,6.94,7.76
				c5.92,10.93,5.11,24.28-2.09,34.42c-1.64,2.18-3.47,4.21-5.47,6.07c-4.07,3.89-8.95,10.2-14.31,11.39
				c0.18-4.7,4.77-20.15,1.42-24.23c-5.33-6.47-17.76-5.73-24.99-4.67c-7.85,1.15-15.1,6.19-22.85,6.88
				c-6.13-0.09-12.08-2.13-16.98-5.81C219.85,21.16,216.5,13.51,217.35,5.73z"/>
			<path id="Tracé_8514_1_" class="st6" d="M240.23,31.58l10.91,18.83l-3.81-19.55L240.23,31.58z"/>
			<path id="Tracé_8515_1_" class="st9" d="M-36.86,118.83v185.13c0,3.35,2.72,6.07,6.07,6.07l0,0H349.5
				c3.35,0,6.07-2.72,6.07-6.07l0,0V118.83H-36.86z"/>
			<path id="Tracé_8516_1_" class="st9" d="M355.56,118.83v184.3c0,3.82,3.09,6.91,6.91,6.91h173.85c3.82,0,6.91-3.09,6.91-6.91
				V118.87L355.56,118.83z"/>
			<path id="Tracé_8517_1_" class="st10" d="M355.56,103.21V88.35c0-5.98-4.84-10.83-10.82-10.84c0,0-0.01,0-0.01,0H-26.02
				c-5.98-0.01-10.83,4.83-10.84,10.81c0,0.01,0,0.02,0,0.02v30.64h392.43V103.21z"/>
			<path id="Tracé_8518_1_" class="st10" d="M543.27,118.99V89.71c0-6.75-5.47-12.22-12.22-12.23c0,0,0,0,0,0H367.81
				c-6.75,0-12.23,5.47-12.23,12.23v29.28H543.27z"/>
			<path id="Tracé_8519_1_" class="st8" d="M154.31,77.52l-7.64-7.4l-17.02,3.7l-3.7,15.54h17.76l6.16-11.6L154.31,77.52z"/>
			<path id="Tracé_8520_1_" class="st11" d="M421.95,20.53l6.66,11.1l8.13-8.13l2.96-7.4l-11.09-8.89L421.95,20.53z"/>
			<path id="Tracé_8521_1_" class="st8" d="M412.85,27.91l2.44-13.3l8.13-7.4l7.4,5.92l-2.22,4.44l-5.18-2.96l-3.38,6.28
				l6.97,11.45l-3.34,1.22L412.85,27.91z"/>
			<path id="Tracé_8522_1_" class="st9" d="M-15.48,94.16v-1.55h9.7v1.55h-3.88v13.13h-1.93V94.16H-15.48z"/>
			<path id="Tracé_8523_1_" class="st9" d="M-1.34,93.41c-0.24,0.25-0.58,0.39-0.93,0.39c-0.35,0.01-0.68-0.13-0.92-0.39
				c-0.25-0.24-0.39-0.58-0.38-0.93c0-0.35,0.14-0.69,0.39-0.93c0.52-0.5,1.35-0.49,1.85,0.03c0.23,0.24,0.37,0.56,0.37,0.9
				C-0.95,92.83-1.09,93.17-1.34,93.41z M-3.25,107.3V95.66h1.91v11.63H-3.25z"/>
			<path id="Tracé_8524_1_" class="st9" d="M2.66,105.82c-2.09-2.52-2.09-6.18,0-8.7c1.06-1.11,2.54-1.71,4.07-1.66
				c1.22-0.05,2.42,0.29,3.43,0.98c0.91,0.69,1.56,1.67,1.85,2.77H9.93c-0.2-0.65-0.62-1.2-1.17-1.59c-0.6-0.39-1.31-0.59-2.03-0.57
				c-1.01-0.04-1.99,0.39-2.66,1.15c-1.34,1.97-1.34,4.56,0,6.53c0.66,0.77,1.64,1.19,2.66,1.15c1.45,0.14,2.79-0.76,3.2-2.16h2.03
				c-0.31,1.09-0.96,2.05-1.87,2.73c-0.99,0.71-2.19,1.07-3.4,1.02C5.17,107.52,3.71,106.92,2.66,105.82z"/>
			<path id="Tracé_8525_1_" class="st9" d="M16.5,107.29h-1.92V91.61h1.92v9.2l4.44-5.18h2.71l-5.49,5.79l5.49,5.85h-2.61
				l-4.56-5.11L16.5,107.29z"/>
			<path id="Tracé_8526_1_" class="st9" d="M30.31,107.49c-1.53,0.06-3.01-0.55-4.07-1.66c-2.1-2.53-2.1-6.19,0-8.72
				c1.08-1.1,2.58-1.69,4.12-1.63c2.93-0.17,5.44,2.07,5.61,5c0.01,0.18,0.01,0.35,0,0.53c0,0.38-0.03,0.76-0.09,1.14h-9.24
				c0,1.02,0.39,2,1.09,2.74c0.68,0.68,1.61,1.04,2.57,1c0.71,0.02,1.4-0.16,2-0.53c0.53-0.33,0.95-0.82,1.2-1.4h2.07
				c-0.36,1.02-1.02,1.9-1.89,2.53C32.7,107.19,31.51,107.54,30.31,107.49z M32.92,98.07c-0.69-0.67-1.62-1.03-2.57-1.01
				c-0.95-0.03-1.87,0.32-2.55,0.98c-0.71,0.72-1.11,1.69-1.13,2.7h7.32C34.01,99.74,33.63,98.78,32.92,98.07L32.92,98.07z"/>
			<path id="Tracé_8527_1_" class="st9" d="M42.21,105.73h1.6v1.57h-1.96c-1.44,0.22-2.79-0.76-3.02-2.21
				c-0.04-0.25-0.04-0.5-0.01-0.75v-7.08h-1.48v-1.57h1.48V92.8h1.95v2.89h3.03v1.57h-3.01v7.08c-0.05,0.39,0.07,0.79,0.32,1.1
				C41.43,105.67,41.82,105.77,42.21,105.73z"/>
			<g id="Groupe_443_1_" transform="translate(103.678 103.553)" class="st1">
				
					<rect id="Rectangle_1503_1_" x="269.34" y="240.69" transform="matrix(0.7151 -0.699 0.699 0.7151 -95.5095 259.1392)" class="st2" width="1.61" height="12.09"/>
				
					<rect id="Rectangle_1504_1_" x="264.1" y="245.94" transform="matrix(0.7244 -0.6894 0.6894 0.7244 -95.6453 254.2352)" class="st2" width="12.09" height="1.61"/>
			</g>
			<g id="Groupe_444_1_" transform="translate(49.629 119.751)" class="st1">
				
					<rect id="Rectangle_1505_1_" x="103.61" y="290.36" transform="matrix(0.7151 -0.699 0.699 0.7151 -177.4486 157.4372)" class="st2" width="1.61" height="12.09"/>
				
					<rect id="Rectangle_1506_1_" x="98.38" y="295.6" transform="matrix(0.7244 -0.6894 0.6894 0.7244 -175.5566 153.6729)" class="st2" width="12.09" height="1.61"/>
			</g>
			<g id="Groupe_445_1_" transform="translate(69.644 4.372)" class="st1">
				
					<rect id="Rectangle_1507_1_" x="164.99" y="-63.42" transform="matrix(0.7151 -0.699 0.699 0.7151 87.3461 99.5454)" class="st2" width="1.61" height="12.09"/>
				
					<rect id="Rectangle_1508_1_" x="159.75" y="-58.18" transform="matrix(0.7244 -0.6894 0.6894 0.7244 85.2467 98.4787)" class="st2" width="12.09" height="1.61"/>
			</g>
		</g>
	</g>
	<g class="st12">
		<path class="st13" d="M537.8,238.51h26.46v9.13c0,1.73-0.17,3.21-0.49,4.44c-0.33,1.23-0.8,2.23-1.41,3.02
			c-0.61,0.79-1.35,1.36-2.21,1.73c-0.87,0.37-1.84,0.55-2.93,0.55c-0.62,0-1.22-0.09-1.78-0.27c-0.57-0.18-1.1-0.47-1.59-0.85
			s-0.94-0.87-1.34-1.46c-0.4-0.59-0.74-1.3-1.02-2.11c-0.82,3.63-2.78,5.45-5.89,5.45c-1.12,0-2.16-0.21-3.11-0.64
			c-0.95-0.43-1.77-1.05-2.46-1.87c-0.69-0.82-1.23-1.82-1.62-3.02c-0.39-1.2-0.59-2.56-0.59-4.1V238.51z M549.4,243.44h-7.76v5
			c0,0.92,0.11,1.68,0.33,2.3c0.22,0.62,0.51,1.11,0.88,1.48c0.37,0.37,0.79,0.64,1.28,0.81s1.01,0.25,1.56,0.25
			c0.57,0,1.09-0.09,1.55-0.27c0.46-0.18,0.85-0.47,1.17-0.86c0.32-0.39,0.57-0.89,0.74-1.5s0.26-1.35,0.26-2.21V243.44z
			 M552.8,243.44v3.93c0,1.67,0.3,2.94,0.91,3.81c0.61,0.87,1.58,1.3,2.91,1.3c1.38,0,2.36-0.39,2.95-1.17
			c0.59-0.78,0.88-2,0.88-3.66v-4.21H552.8z"/>
		<path class="st13" d="M537.8,298.09v-3.81c0-0.43,0.11-0.78,0.32-1.05c0.21-0.27,0.48-0.47,0.8-0.59l5.4-1.98V279.7l-5.4-1.98
			c-0.28-0.1-0.54-0.29-0.77-0.58s-0.35-0.64-0.35-1.05v-3.82l26.46,10.39v5.03L537.8,298.09z M547.79,280.96v8.44l8.8-3.22
			c0.39-0.15,0.85-0.31,1.38-0.49c0.53-0.18,1.11-0.35,1.73-0.52c-0.62-0.17-1.2-0.34-1.74-0.5c-0.54-0.16-1.01-0.33-1.41-0.48
			L547.79,280.96z"/>
		<path class="st13" d="M564.23,316.43c-0.02,0.15-0.05,0.28-0.11,0.39c-0.06,0.12-0.13,0.23-0.24,0.34
			c-0.1,0.11-0.24,0.23-0.41,0.37l-17.69,13.89c0.43-0.05,0.84-0.08,1.25-0.1c0.41-0.02,0.79-0.03,1.14-0.03h16.08v4.34H537.8v-2.54
			c0-0.39,0.06-0.71,0.18-0.97s0.34-0.51,0.66-0.75l17.62-13.83c-0.39,0.04-0.78,0.06-1.16,0.08c-0.38,0.02-0.74,0.03-1.05,0.03
			H537.8v-4.34h26.46v2.58C564.26,316.1,564.25,316.28,564.23,316.43z"/>
		<path class="st13" d="M553.17,358.53v1.15c0,0.46,0.06,0.85,0.19,1.15c0.13,0.3,0.33,0.57,0.61,0.79l9.24,7.3
			c0.39,0.3,0.66,0.63,0.81,0.96s0.23,0.76,0.23,1.27v4.25l-11-8.91c-0.34-0.28-0.63-0.55-0.86-0.81c-0.23-0.26-0.42-0.53-0.57-0.82
			c-0.15,0.4-0.35,0.77-0.62,1.09c-0.27,0.32-0.61,0.64-1.02,0.94l-12.39,9.19v-4.35c0-0.59,0.08-1.02,0.25-1.31
			s0.41-0.53,0.72-0.72l9.77-7.48c0.32-0.24,0.55-0.52,0.69-0.82c0.14-0.31,0.21-0.74,0.21-1.3v-1.56H537.8v-4.92h26.48v4.92H553.17
			z"/>
	</g>
	<g id="calendar_1_" transform="translate(224.673 222.675)">
		<path id="Tracé_8562_1_" class="st0" d="M456.55,330.23c0-0.09-0.07-0.16-0.1-0.24c-0.04-0.14-0.1-0.28-0.17-0.41
			c-0.08-0.15-0.18-0.3-0.29-0.43c-0.09-0.11-0.19-0.21-0.29-0.31c-0.13-0.11-0.26-0.2-0.41-0.28c-0.27-0.18-0.59-0.28-0.91-0.3
			c-0.11-0.03-0.22-0.06-0.33-0.07H441.1c-0.68-8.96-4.83-15.44-10.19-15.44s-9.52,6.48-10.17,15.43h-5.37
			c-0.66-8.95-4.81-15.43-10.17-15.43s-9.52,6.48-10.17,15.43h-5.37c-0.66-8.95-4.81-15.43-10.18-15.43
			c-5.36,0-9.52,6.48-10.17,15.43h-5.37c-0.66-8.95-4.82-15.43-10.18-15.43s-9.52,6.48-10.17,15.43h-12.98
			c-1.42,0-2.57,1.15-2.57,2.57c0,0,0,0,0,0v133.7c0,1.42,1.15,2.57,2.57,2.57h123.42c1.42,0,2.57-1.15,2.57-2.57v-7.73h23.14
			c1.42,0,2.57-1.15,2.57-2.57c0-0.17-0.02-0.35-0.05-0.52L456.55,330.23z M430.89,317.89c1.86,0,4.45,3.94,5.02,10.28H425.9
			c0.57-6.35,3.15-10.28,5.01-10.28H430.89z M405.18,317.89c1.86,0,4.45,3.94,5.02,10.28h-10.02c0.56-6.35,3.15-10.28,5.01-10.28
			H405.18z M379.47,317.89c1.86,0,4.45,3.94,5.02,10.28h-10.02C375.03,321.83,377.62,317.89,379.47,317.89L379.47,317.89z
			 M353.76,317.89c1.86,0,4.45,3.94,5.02,10.28h-10.02C349.32,321.83,351.91,317.89,353.76,317.89L353.76,317.89z M333.2,333.32
			h10.39c0.66,8.95,4.8,15.43,10.18,15.43c1.42,0,2.57-1.15,2.57-2.57s-1.15-2.57-2.57-2.57c-1.86,0-4.45-3.94-5.02-10.28h20.55
			c0.67,8.95,4.81,15.43,10.17,15.43c1.42,0,2.57-1.15,2.57-2.57s-1.15-2.57-2.57-2.57c-1.86,0-4.45-3.94-5.02-10.28h20.55
			c0.67,8.95,4.81,15.43,10.17,15.43c1.42,0,2.57-1.15,2.57-2.57s-1.15-2.57-2.57-2.57c-1.86,0-4.45-3.94-5.02-10.28h20.57
			c0.67,8.95,4.81,15.43,10.17,15.43c1.42,0,2.57-1.15,2.57-2.57s-1.15-2.57-2.57-2.57c-1.86,0-4.45-3.94-5.02-10.28h25.59v25.71
			H333.2V333.32z M451.47,461.88H333.2v-97.7h118.27V461.88z M456.62,451.59v-95.91l19.98,95.91H456.62z"/>
		<path id="Tracé_8563_1_" class="st0" d="M384.62,405.31h-10.28c-1.42,0-2.57,1.15-2.57,2.57v10.28c0,1.42,1.15,2.57,2.57,2.57
			h10.28c1.42,0,2.57-1.15,2.57-2.57v-10.28C387.19,406.46,386.04,405.31,384.62,405.31z M382.05,415.6h-5.14v-5.14h5.14V415.6z"/>
		<path id="Tracé_8564_1_" class="st0" d="M410.34,405.31h-10.28c-1.42,0-2.57,1.15-2.57,2.57v10.28c0,1.42,1.15,2.57,2.57,2.57
			h10.28c1.42,0,2.57-1.15,2.57-2.57v-10.28C412.91,406.46,411.76,405.31,410.34,405.31z M407.77,415.6h-5.14v-5.14h5.14V415.6z"/>
		<path id="Tracé_8565_1_" class="st0" d="M358.91,405.31h-10.29c-1.42,0-2.57,1.15-2.57,2.57v10.28c0,1.42,1.15,2.57,2.57,2.57
			h10.28c1.42,0,2.57-1.15,2.57-2.57v-10.28C361.48,406.46,360.33,405.31,358.91,405.31z M356.34,415.6h-5.14v-5.14h5.14V415.6z"/>
		<path id="Tracé_8566_1_" class="st0" d="M384.62,431.02h-10.28c-1.42,0-2.57,1.15-2.57,2.57v10.28c0,1.42,1.15,2.57,2.57,2.57
			h10.28c1.42,0,2.57-1.15,2.57-2.57v-10.28C387.19,432.17,386.04,431.02,384.62,431.02z M382.05,441.31h-5.14v-5.14h5.14V441.31z"
			/>
		<path id="Tracé_8567_1_" class="st0" d="M410.34,431.02h-10.28c-1.42,0-2.57,1.15-2.57,2.57v10.28c0,1.42,1.15,2.57,2.57,2.57
			h10.28c1.42,0,2.57-1.15,2.57-2.57v-10.28C412.91,432.17,411.76,431.02,410.34,431.02z M407.77,441.31h-5.14v-5.14h5.14V441.31z"
			/>
		<path id="Tracé_8568_1_" class="st0" d="M358.91,431.02h-10.29c-1.42,0-2.57,1.15-2.57,2.57v10.28c0,1.42,1.15,2.57,2.57,2.57
			h10.28c1.42,0,2.57-1.15,2.57-2.57v-10.28C361.48,432.18,360.33,431.03,358.91,431.02z M356.34,441.31h-5.14v-5.14h5.14V441.31z"
			/>
		<path id="Tracé_8569_1_" class="st0" d="M384.62,379.6h-10.28c-1.42,0-2.57,1.15-2.57,2.57l0,0v10.28c0,1.42,1.15,2.57,2.57,2.57
			l0,0h10.28c1.42,0,2.57-1.15,2.57-2.57l0,0v-10.28C387.19,380.75,386.04,379.6,384.62,379.6L384.62,379.6z M382.05,389.89h-5.14
			v-5.14h5.14V389.89z"/>
		<path id="Tracé_8570_1_" class="st0" d="M410.34,379.6h-10.28c-1.42,0-2.57,1.15-2.57,2.57l0,0v10.28c0,1.42,1.15,2.57,2.57,2.57
			l0,0h10.28c1.42,0,2.57-1.15,2.57-2.57l0,0v-10.28C412.91,380.75,411.76,379.6,410.34,379.6L410.34,379.6z M407.77,389.89h-5.14
			v-5.14h5.14V389.89z"/>
		<path id="Tracé_8571_1_" class="st0" d="M436.05,405.31h-10.28c-1.42,0-2.57,1.15-2.57,2.57v10.28c0,1.42,1.15,2.57,2.57,2.57
			h10.28c1.42,0,2.57-1.15,2.57-2.57v-10.28C438.62,406.46,437.47,405.31,436.05,405.31z M433.48,415.6h-5.14v-5.14h5.14V415.6z"/>
		<path id="Tracé_8572_1_" class="st0" d="M436.05,431.02h-10.28c-1.42,0-2.57,1.15-2.57,2.57v10.28c0,1.42,1.15,2.57,2.57,2.57
			h10.28c1.42,0,2.57-1.15,2.57-2.57v-10.28C438.62,432.17,437.47,431.02,436.05,431.02z M433.48,441.31h-5.14v-5.14h5.14V441.31z"
			/>
		<path id="Tracé_8573_1_" class="st0" d="M436.05,379.6h-10.28c-1.42,0-2.57,1.15-2.57,2.57v10.28c0,1.42,1.15,2.57,2.57,2.57
			h10.28c1.42,0,2.57-1.15,2.57-2.57v-10.28C438.62,380.75,437.47,379.6,436.05,379.6z M433.48,389.89h-5.14v-5.14h5.14V389.89z"/>
		<path id="Tracé_8574_1_" class="st0" d="M358.91,379.6h-10.29c-1.42,0-2.57,1.15-2.57,2.57l0,0v10.28c0,1.42,1.15,2.57,2.57,2.57
			h0h10.28c1.42,0,2.57-1.15,2.57-2.57l0,0v-10.28C361.48,380.75,360.33,379.6,358.91,379.6z M356.34,389.89h-5.14v-5.14h5.14
			V389.89z"/>
	</g>
	<g id="Groupe_453_1_" transform="translate(64 -32)">
		<path id="Rectangle_1549_1_" class="st13" d="M-51.11,87.52L60.24,63.83c8.79-1.87,17.42,3.74,19.29,12.52l16.92,79.54
			c1.87,8.79-3.74,17.42-12.52,19.29l-111.35,23.68c-8.79,1.87-17.42-3.74-19.29-12.52l-16.92-79.54
			C-65.5,98.02-59.89,89.38-51.11,87.52z"/>
		<g class="st12">
			<path class="st2" d="M-42.19,127.04l2.07,8.95l-4.26,0.98l-5.29-22.92l6.99-1.61c1.56-0.36,2.94-0.51,4.13-0.44
				c1.19,0.07,2.21,0.31,3.05,0.72c0.85,0.42,1.53,0.99,2.05,1.72c0.52,0.73,0.89,1.58,1.12,2.55c0.18,0.77,0.23,1.53,0.16,2.27
				c-0.07,0.74-0.25,1.44-0.55,2.1c-0.3,0.66-0.71,1.27-1.24,1.84c-0.53,0.57-1.17,1.07-1.91,1.51c0.61,0.18,1.18,0.51,1.7,0.99
				l7.69,7.14l-3.83,0.89c-0.37,0.09-0.7,0.08-1,0c-0.29-0.09-0.56-0.25-0.8-0.48l-6.51-6.23c-0.24-0.23-0.49-0.38-0.73-0.45
				c-0.24-0.07-0.58-0.05-1,0.05L-42.19,127.04z M-42.89,123.98l2.66-0.61c0.8-0.19,1.48-0.45,2.03-0.79
				c0.55-0.34,0.98-0.73,1.28-1.17c0.3-0.44,0.5-0.93,0.57-1.46c0.08-0.53,0.05-1.08-0.08-1.67c-0.27-1.16-0.86-1.96-1.77-2.41
				c-0.91-0.45-2.15-0.49-3.73-0.12l-2.73,0.63L-42.89,123.98z"/>
			<path class="st2" d="M-14.6,105.96l0.78,3.39l-10.16,2.35l1.47,6.35l8-1.85l0.76,3.28l-8,1.85l1.5,6.48l10.16-2.35l0.79,3.41
				l-14.45,3.34l-5.29-22.92L-14.6,105.96z"/>
			<path class="st2" d="M-8.19,104.51c0.13-0.01,0.25-0.01,0.36,0.02c0.11,0.02,0.22,0.07,0.34,0.14c0.12,0.07,0.25,0.16,0.4,0.28
				l15.57,12.55c-0.13-0.36-0.24-0.71-0.34-1.06c-0.1-0.35-0.18-0.68-0.25-0.99l-3.22-13.93l3.76-0.87l5.29,22.92l-2.2,0.51
				c-0.34,0.08-0.63,0.09-0.88,0.04c-0.25-0.05-0.51-0.19-0.78-0.42l-15.5-12.5c0.11,0.33,0.21,0.66,0.3,0.99
				c0.09,0.33,0.17,0.63,0.23,0.91l3.25,14.07l-3.76,0.87l-5.29-22.92l2.23-0.52C-8.48,104.55-8.32,104.52-8.19,104.51z"/>
			<path class="st2" d="M36.05,106.34c0.39,1.68,0.46,3.29,0.23,4.82c-0.24,1.53-0.74,2.93-1.52,4.17
				c-0.78,1.25-1.82,2.32-3.12,3.21c-1.3,0.89-2.81,1.53-4.54,1.93l-8.75,2.02l-5.29-22.92l8.75-2.02c1.73-0.4,3.38-0.48,4.93-0.25
				c1.56,0.24,2.96,0.74,4.21,1.52c1.25,0.78,2.31,1.8,3.2,3.08C35.02,103.18,35.66,104.66,36.05,106.34z M31.69,107.34
				c-0.29-1.26-0.72-2.35-1.29-3.27c-0.57-0.92-1.24-1.65-2.03-2.2c-0.78-0.55-1.66-0.9-2.64-1.07c-0.98-0.16-2.03-0.12-3.15,0.14
				l-4.45,1.03l3.72,16.13l4.45-1.03c1.12-0.26,2.08-0.68,2.89-1.25c0.81-0.58,1.44-1.28,1.91-2.12c0.46-0.84,0.75-1.79,0.86-2.87
				S31.98,108.6,31.69,107.34z"/>
			<path class="st2" d="M51.2,90.77l0.78,3.39l-10.16,2.35l1.47,6.35l8-1.85l0.76,3.28l-8,1.85l1.5,6.48l10.16-2.35l0.79,3.41
				l-14.45,3.34l-5.29-22.92L51.2,90.77z"/>
			<path class="st2" d="M62.52,102.86l2.07,8.95l-4.26,0.98l-5.29-22.92l6.99-1.61c1.56-0.36,2.94-0.51,4.13-0.44
				c1.19,0.07,2.21,0.31,3.05,0.72c0.85,0.42,1.53,0.99,2.05,1.72c0.52,0.73,0.89,1.58,1.12,2.55c0.18,0.77,0.23,1.53,0.16,2.27
				c-0.07,0.74-0.25,1.44-0.55,2.1c-0.3,0.66-0.71,1.27-1.24,1.84c-0.53,0.57-1.17,1.07-1.91,1.51c0.61,0.18,1.17,0.51,1.7,0.99
				l7.69,7.14l-3.83,0.89c-0.37,0.09-0.7,0.08-0.99,0c-0.29-0.09-0.56-0.25-0.8-0.48l-6.51-6.23c-0.24-0.23-0.49-0.38-0.73-0.45
				c-0.24-0.07-0.58-0.05-1,0.05L62.52,102.86z M61.82,99.8l2.66-0.61c0.8-0.19,1.48-0.45,2.03-0.79c0.55-0.34,0.98-0.73,1.28-1.17
				c0.3-0.44,0.49-0.93,0.57-1.46c0.08-0.53,0.05-1.08-0.08-1.67c-0.27-1.16-0.86-1.97-1.77-2.41c-0.91-0.45-2.15-0.49-3.73-0.12
				l-2.73,0.63L61.82,99.8z"/>
		</g>
		<g class="st12">
			<path class="st2" d="M-23.71,149.8l3.44-0.79c0.37-0.09,0.69-0.06,0.97,0.06c0.27,0.13,0.5,0.32,0.68,0.58l8.61,12.73
				c0.29,0.41,0.57,0.87,0.86,1.38c0.29,0.51,0.58,1.04,0.86,1.61c-0.04-1.27,0.02-2.41,0.16-3.42l2.15-15.22
				c0.04-0.26,0.16-0.52,0.35-0.78c0.2-0.26,0.47-0.43,0.83-0.51l3.44-0.79l-3.96,25.05l-3.85,0.89L-23.71,149.8z"/>
			<path class="st2" d="M25.68,150.46c0.39,1.68,0.47,3.3,0.24,4.86c-0.23,1.56-0.73,2.98-1.5,4.26c-0.77,1.28-1.81,2.38-3.1,3.29
				c-1.29,0.92-2.8,1.57-4.54,1.97s-3.38,0.47-4.95,0.22c-1.57-0.26-2.98-0.79-4.24-1.6s-2.34-1.87-3.23-3.17
				c-0.89-1.3-1.53-2.79-1.92-4.47c-0.39-1.68-0.47-3.3-0.24-4.86c0.23-1.56,0.73-2.98,1.51-4.26s1.81-2.38,3.11-3.3
				c1.3-0.92,2.81-1.57,4.54-1.97c1.73-0.4,3.38-0.47,4.94-0.21c1.56,0.26,2.97,0.8,4.23,1.6c1.25,0.81,2.33,1.86,3.22,3.16
				C24.65,147.29,25.29,148.79,25.68,150.46z M21.3,151.47c-0.29-1.26-0.72-2.35-1.28-3.27c-0.56-0.92-1.24-1.66-2.02-2.21
				c-0.79-0.55-1.67-0.91-2.64-1.08c-0.98-0.16-2.03-0.12-3.15,0.14s-2.09,0.68-2.9,1.25c-0.81,0.58-1.45,1.29-1.92,2.13
				c-0.47,0.84-0.76,1.8-0.86,2.88c-0.11,1.08-0.02,2.24,0.27,3.5c0.29,1.26,0.72,2.35,1.29,3.27c0.57,0.92,1.25,1.65,2.04,2.2
				c0.79,0.55,1.67,0.9,2.66,1.06c0.98,0.16,2.03,0.11,3.15-0.14c1.12-0.26,2.08-0.68,2.89-1.25c0.81-0.58,1.44-1.28,1.91-2.12
				c0.46-0.84,0.75-1.79,0.85-2.87C21.69,153.9,21.59,152.73,21.3,151.47z"/>
			<path class="st2" d="M40.11,155.58c0.82-0.19,1.53-0.5,2.12-0.92c0.59-0.43,1.05-0.94,1.38-1.54c0.33-0.6,0.54-1.28,0.61-2.04
				c0.07-0.76,0.01-1.58-0.19-2.46l-3.17-13.73l4.26-0.98l3.17,13.73c0.31,1.36,0.39,2.67,0.21,3.93c-0.17,1.26-0.57,2.4-1.2,3.43
				c-0.63,1.03-1.48,1.92-2.54,2.66c-1.06,0.74-2.33,1.28-3.8,1.62c-1.47,0.34-2.84,0.41-4.12,0.21c-1.28-0.2-2.43-0.62-3.44-1.28
				c-1.01-0.65-1.87-1.5-2.58-2.56c-0.71-1.06-1.22-2.27-1.53-3.63l-3.17-13.73l4.26-0.98l3.17,13.71c0.2,0.88,0.5,1.64,0.91,2.3
				c0.4,0.65,0.88,1.18,1.44,1.58c0.56,0.4,1.2,0.66,1.91,0.79C38.52,155.8,39.29,155.77,40.11,155.58z"/>
			<path class="st2" d="M62.71,134.24c-0.06,0.26-0.16,0.45-0.29,0.58c-0.13,0.13-0.3,0.22-0.51,0.27
				c-0.21,0.05-0.47,0.02-0.77-0.08c-0.3-0.1-0.66-0.21-1.06-0.33c-0.41-0.12-0.87-0.2-1.39-0.25c-0.52-0.05-1.11,0-1.76,0.15
				c-0.59,0.14-1.09,0.33-1.5,0.57c-0.41,0.24-0.73,0.53-0.97,0.85c-0.24,0.32-0.4,0.68-0.46,1.07c-0.07,0.39-0.05,0.79,0.05,1.22
				c0.12,0.54,0.38,0.95,0.76,1.24c0.38,0.29,0.85,0.5,1.41,0.64c0.55,0.14,1.17,0.24,1.85,0.29c0.68,0.05,1.38,0.12,2.09,0.19
				c0.71,0.08,1.42,0.19,2.12,0.35c0.7,0.15,1.36,0.4,1.96,0.75c0.6,0.35,1.13,0.82,1.59,1.41c0.45,0.6,0.79,1.37,1.01,2.32
				c0.24,1.04,0.29,2.05,0.14,3.03c-0.15,0.99-0.48,1.89-1.01,2.72c-0.53,0.83-1.24,1.55-2.13,2.16c-0.89,0.61-1.97,1.06-3.24,1.36
				c-0.73,0.17-1.46,0.26-2.2,0.28c-0.74,0.02-1.47-0.03-2.18-0.14c-0.71-0.11-1.39-0.29-2.04-0.53c-0.65-0.24-1.25-0.53-1.8-0.89
				l0.76-2.33c0.08-0.17,0.19-0.33,0.33-0.47c0.14-0.14,0.31-0.23,0.51-0.28c0.26-0.06,0.57-0.02,0.93,0.13
				c0.36,0.15,0.77,0.3,1.25,0.47c0.48,0.17,1.03,0.29,1.64,0.38s1.32,0.04,2.11-0.15c1.21-0.28,2.09-0.78,2.62-1.51
				c0.53-0.73,0.67-1.63,0.43-2.71c-0.14-0.6-0.4-1.06-0.79-1.37c-0.39-0.31-0.86-0.54-1.42-0.68c-0.56-0.14-1.17-0.23-1.85-0.27
				c-0.68-0.03-1.37-0.08-2.07-0.14c-0.7-0.06-1.41-0.16-2.11-0.31c-0.7-0.15-1.36-0.41-1.96-0.77c-0.61-0.36-1.14-0.86-1.61-1.51
				c-0.47-0.64-0.82-1.49-1.06-2.53c-0.19-0.83-0.21-1.69-0.06-2.56c0.15-0.87,0.47-1.68,0.97-2.45c0.5-0.76,1.17-1.43,2.01-2.02
				c0.84-0.58,1.86-1.01,3.06-1.29c1.35-0.31,2.65-0.39,3.89-0.23c1.24,0.16,2.35,0.53,3.33,1.1L62.71,134.24z"/>
		</g>
		<circle id="Ellipse_5026_1_" class="st2" cx="-24.32" cy="95.03" r="6.1"/>
		<circle id="Ellipse_5027_1_" class="st2" cx="40.74" cy="82.83" r="6.1"/>
		<path id="Tracé_8575_1_" class="st14" d="M-24.6,94.5c0,0,11.79-57.21,13.09-56.23s52,43.92,52,43.92"/>
		<circle id="Ellipse_5025_1_" class="st15" cx="-12.12" cy="38.1" r="6.1"/>
	</g>
	<path id="Rectangle_1550" class="st16" d="M98.64,248.04h321.23c4.49,0,8.13,3.64,8.13,8.13v12.2c0,4.49-3.64,8.13-8.13,8.13H98.64
		c-4.49,0-8.13-3.64-8.13-8.13v-12.2C90.51,251.68,94.15,248.04,98.64,248.04z"/>
	<path id="Rectangle_1551" class="st16" d="M98.64,284.64h321.23c4.49,0,8.13,3.64,8.13,8.13v12.2c0,4.49-3.64,8.13-8.13,8.13H98.64
		c-4.49,0-8.13-3.64-8.13-8.13v-12.2C90.51,288.28,94.15,284.64,98.64,284.64z"/>
	<path id="Rectangle_1552" class="st16" d="M98.64,321.23h162.65c4.49,0,8.13,3.64,8.13,8.13v12.2c0,4.49-3.64,8.13-8.13,8.13H98.64
		c-4.49,0-8.13-3.64-8.13-8.13v-12.2C90.51,324.87,94.15,321.23,98.64,321.23z"/>
</g>
</svg>
